<svg xmlns="http://www.w3.org/2000/svg" viewBox="0 0 360 340" role="img" aria-labelledby="title desc">
  <title id="title">Conciliación de inventario</title><desc id="desc">Existencias de operación y registros de sistemas se comparan; las diferencias pasan a revisión y control.</desc>
  <style>text{font-family:Arial,sans-serif;fill:#182b43;font-size:16px;font-weight:600}.muted{fill:#526173;font-size:14px;font-weight:400}.node{fill:#fbf8f1;stroke:#9ca9b5;stroke-width:1.5}.accent{fill:#f5e9e6;stroke:#a8463b}</style>
  <rect width="360" height="340" rx="12" fill="#f4f0e7"/>
  <rect class="node" x="18" y="24" width="150" height="72" rx="8"/><text x="32" y="53">Existencias</text><text class="muted" x="32" y="77">de operación</text>
  <rect class="node" x="192" y="24" width="150" height="72" rx="8"/><text x="206" y="53">Registros</text><text class="muted" x="206" y="77">de sistemas</text>
  <path d="M93 98v25h87M267 98v25h-87v21" fill="none" stroke="#a8463b" stroke-width="2"/><path d="m173 139 7 7 7-7" fill="none" stroke="#a8463b" stroke-width="2"/>
  <rect class="node" x="54" y="152" width="252" height="65" rx="8"/><text x="180" y="181" text-anchor="middle">Conciliar</text><text class="muted" x="180" y="203" text-anchor="middle">comparar diferencias</text>
  <path d="M180 217v28" fill="none" stroke="#a8463b" stroke-width="2"/><path d="m173 239 7 7 7-7" fill="none" stroke="#a8463b" stroke-width="2"/>
  <rect class="accent" x="54" y="253" width="252" height="65" rx="8"/><text x="180" y="280" text-anchor="middle">Excepciones y control</text><text class="muted" x="180" y="302" text-anchor="middle">revisión y seguimiento</text>
</svg>
